<?xml version="1.0" standalone="no"?>
<!DOCTYPE svg PUBLIC "-//W3C//DTD SVG 20010904//EN"
 "http://www.w3.org/TR/2001/REC-SVG-20010904/DTD/svg10.dtd">
<svg version="1.0" xmlns="http://www.w3.org/2000/svg"
 width="370.000000pt" height="133.000000pt" viewBox="50 00 370.000000 133.000000"
 preserveAspectRatio="xMidYMid meet">

<g transform="translate(0.000000,133.000000) scale(0.100000,-0.100000)"
fill="#000000" stroke="none">
<path d="M1407 889 c-10 -6 -15 -14 -13 -18 3 -5 -22 -48 -55 -97 -33 -49 -70
-104 -82 -121 -12 -18 -35 -37 -51 -43 -20 -7 -26 -14 -22 -26 8 -20 -59 -112
-104 -146 -29 -21 -40 -48 -21 -48 12 0 27 15 72 70 93 115 90 113 187 115 48
1 108 5 134 10 43 6 47 5 53 -17 21 -68 80 -171 109 -189 38 -23 45 -10 12 25
-27 30 -74 124 -83 167 -5 27 -3 29 23 29 37 0 74 10 74 20 0 4 -20 5 -45 2
-48 -5 -75 8 -75 38 0 37 -70 222 -88 234 -4 2 -15 0 -25 -5z m48 -134 c11
-33 23 -64 26 -70 3 -5 6 -24 8 -42 l2 -31 -98 -1 c-54 0 -104 3 -111 8 -11 6
2 31 55 104 40 57 74 95 83 94 9 -1 24 -28 35 -62z"/>
<path d="M918 853 c-2 -15 0 -41 5 -58 10 -35 12 -241 3 -305 -15 -105 -16
-109 -57 -193 -27 -57 -67 -82 -149 -92 -50 -6 -173 11 -222 30 -10 4 -18 3
-18 -3 0 -5 26 -17 58 -26 127 -35 247 -27 310 20 48 37 93 136 104 233 13
111 19 333 10 377 -10 48 -39 59 -44 17z"/>
<path d="M2121 859 c-81 -49 -159 -228 -142 -329 15 -92 77 -140 180 -140 34
0 69 4 79 8 9 5 44 22 77 37 58 28 153 110 142 122 -4 3 -30 -16 -60 -43 -94
-86 -234 -120 -321 -79 -28 14 -43 30 -57 62 -24 55 -24 73 0 148 23 75 37
100 83 154 32 37 41 43 81 44 64 3 100 -26 107 -84 7 -58 17 -74 36 -58 16 13
19 72 4 99 -16 30 -96 72 -141 74 -23 1 -51 -5 -68 -15z"/>
<path d="M2647 810 c-41 -37 -97 -132 -97 -163 0 -7 -3 -17 -7 -21 -11 -11
-15 -36 -17 -104 -1 -53 2 -66 19 -77 11 -8 25 -19 31 -24 57 -48 233 -19 352
59 82 53 109 82 122 129 9 35 8 48 -10 89 -45 105 -129 152 -273 152 -76 0
-78 -1 -120 -40z m272 -10 c77 -39 126 -131 102 -192 -18 -46 -127 -126 -211
-155 -86 -29 -188 -33 -225 -9 -34 23 -45 65 -29 112 8 21 14 47 14 56 0 20
59 118 71 118 5 0 9 6 9 13 0 17 54 57 77 57 10 0 25 5 33 10 26 17 118 11
159 -10z"/>
<path d="M1788 709 c-25 -14 -22 -46 3 -54 29 -10 58 19 43 42 -14 22 -25 25
-46 12z"/>
<path d="M1778 445 c-15 -34 6 -57 40 -44 24 9 29 38 10 57 -19 19 -37 14 -50
-13z"/>
</g>
</svg>
